<svg width="30" height="30" viewBox="0 0 30 30" fill="none" xmlns="http://www.w3.org/2000/svg">
<path d="M14.9996 29.1515C23.1626 29.2662 29.8745 22.7438 29.9942 14.5807C29.8745 6.41772 23.1626 -0.104718 14.9996 0.00997354C6.8316 -0.104718 0.119678 6.41772 0 14.5807C0.119678 22.7438 6.8316 29.2662 14.9996 29.1515Z" fill="#FFC800"/>
<path d="M21.4516 25.4364C16.3603 28.2937 10.8352 28.8023 7.30469 27.0919C11.9971 29.7997 17.7665 29.8445 22.4988 27.2016C27.1712 24.6286 30.0534 19.6969 29.9986 14.3662C29.7592 18.1859 26.5429 22.5791 21.4516 25.4364Z" fill="black"/>
<path d="M16.902 1.07711C17.9342 2.81244 15.4409 6.0936 11.327 8.3974C7.2131 10.7062 3.04432 11.1649 2.0121 9.42463C1.96722 9.33986 1.92733 9.2501 1.89741 9.16035C1.70294 8.09821 2.00712 7.01113 2.7202 6.20331C2.84486 6.02878 2.97451 5.85924 3.10416 5.69468C4.31091 4.17378 5.8019 2.9022 7.49733 1.95974C9.20274 1.00232 11.0827 0.378994 13.0225 0.129665C13.2419 0.0997457 13.4563 0.0748127 13.6657 0.0598529C14.7478 -0.134623 15.8598 0.149612 16.7125 0.842745C16.7873 0.917544 16.8472 0.997328 16.902 1.07711Z" fill="black"/>
<path d="M23.2777 2.95707C25.0828 5.9889 21.4426 11.3096 15.1545 14.8351C8.86646 18.3606 2.30414 18.7645 0.503984 15.7327C0.20479 15.224 0.0352468 14.6506 0.010314 14.0572C-0.0694712 16.1416 0.314495 18.216 1.13229 20.1358C1.25696 20.43 1.39658 20.7192 1.54119 21.0085L1.56114 21.0434C2.12462 21.9659 2.93743 22.7139 3.90981 23.1926C7.44031 25.0276 13.4042 24.3993 18.9842 21.2678C24.5542 18.1412 28.0997 13.4388 28.2343 9.5543C28.2892 8.49216 28.0299 7.43501 27.4963 6.51249C27.2918 6.2133 27.0824 5.92408 26.858 5.64982C25.5515 4.01422 23.9159 2.67782 22.0609 1.7204C22.5546 2.02957 22.9735 2.45342 23.2777 2.95707Z" fill="black"/>
</svg>
