<svg width="30" height="30" viewBox="0 0 30 30" fill="none" xmlns="http://www.w3.org/2000/svg">
<g clip-path="url(#clip0_4080_264)">
<path d="M29.4137 10.8657C31.698 18.8307 27.0873 27.1362 19.1322 29.4147C11.1671 31.6992 2.86174 27.0887 0.583283 19.1338C-1.70108 11.1689 2.89945 2.86927 10.8646 0.584893C18.8137 -1.70388 27.1294 2.90067 29.4137 10.8657Z" fill="#0AC08D"/>
<path d="M20.2514 9.80995C19.509 7.93818 17.6607 7.76036 15.4968 8.18425L14.732 5.50005L13.1061 5.96516L13.8561 8.57675C13.4278 8.70221 12.9895 8.83353 12.5569 8.97499L11.801 6.35325L10.1751 6.81836L10.9443 9.48655C10.5887 9.59715 10.2432 9.70189 9.90789 9.80077L9.90203 9.79062L7.65192 10.4402L8.15532 12.1793C8.15532 12.1793 9.35142 11.8135 9.33698 11.8354C9.99749 11.6435 10.3216 11.9705 10.4771 12.2867L11.3483 15.3425C11.3948 15.3293 11.4514 15.3101 11.5298 15.3054C11.4732 15.3245 11.4166 15.3437 11.3542 15.3527L12.5767 19.6265C12.6053 19.84 12.575 20.2094 12.1206 20.3364C12.1424 20.3508 10.9389 20.6803 10.9389 20.6803L11.1719 22.7244L13.2986 22.119C13.6964 22.0111 14.0782 21.899 14.4658 21.7969L15.2425 24.5014L16.8684 24.0363L16.1035 21.3521C16.5477 21.231 16.992 21.1098 17.41 20.9902L18.1792 23.6584L19.8051 23.1933L19.0285 20.4888C21.7279 19.5392 23.4492 18.3019 22.9389 15.6601C22.5384 13.5368 21.2971 12.8868 19.6316 12.9553C20.4524 12.1972 20.7953 11.1739 20.2514 9.80995ZM19.6303 16.2577C20.2135 18.2756 16.679 19.0443 15.5742 19.3573L14.5451 15.7702C15.6499 15.4571 19.0308 14.1411 19.6303 16.2577ZM17.4226 11.4026C17.9483 13.2506 14.9974 13.8582 14.0784 14.1181L13.1482 10.8663C14.0672 10.6064 16.8719 9.48778 17.4226 11.4026Z" fill="white"/>
</g>
<defs>
<clipPath id="clip0_4080_264">
<rect width="30" height="30" fill="white"/>
</clipPath>
</defs>
</svg>
