<svg width="30" height="30" viewBox="0 0 30 30" fill="none" xmlns="http://www.w3.org/2000/svg">
<g clip-path="url(#clip0_4057_963)">
<path d="M29.5513 18.6274C27.5471 26.6674 19.4013 31.5548 11.3728 29.5506C3.33256 27.5464 -1.55486 19.401 0.449398 11.3726C2.45354 3.33256 10.5875 -1.55486 18.6278 0.449399C26.6563 2.44182 31.5555 10.5873 29.5513 18.6274Z" fill="url(#paint0_linear_4057_963)"/>
<path d="M22.1426 13.1309C22.4355 11.1387 20.9238 10.0605 18.8379 9.3457L19.5176 6.63867L17.877 6.22852L17.2207 8.86523C16.7871 8.75977 16.3418 8.6543 15.8965 8.56055L16.5527 5.91211L14.9121 5.50195L14.2441 8.19727C13.8809 8.11523 13.5293 8.0332 13.1895 7.95117V7.93945L10.916 7.37695L10.4824 9.13477C10.4824 9.13477 11.7012 9.41602 11.6777 9.42773C12.3457 9.5918 12.4629 10.0371 12.4395 10.3887L11.666 13.4707C11.7129 13.4824 11.7715 13.4941 11.8418 13.5293C11.7832 13.5176 11.7246 13.5059 11.666 13.4824L10.5879 17.7949C10.5059 17.9941 10.2949 18.2988 9.83789 18.1816C9.84961 18.2051 8.64258 17.8887 8.64258 17.8887L7.82227 19.7754L9.9668 20.3145C10.3652 20.4199 10.752 20.5137 11.1387 20.6191L10.459 23.3496L12.0996 23.7598L12.7793 21.0527C13.2246 21.1699 13.6699 21.2871 14.0918 21.3926L13.4238 24.0879L15.0645 24.498L15.7441 21.7676C18.5566 22.2949 20.666 22.084 21.5449 19.541C22.2598 17.502 21.5098 16.3184 20.0332 15.5449C21.123 15.2988 21.9316 14.584 22.1426 13.1309ZM18.3809 18.4043C17.877 20.4434 14.4316 19.3418 13.3184 19.0605L14.2207 15.4395C15.334 15.7207 18.9199 16.2715 18.3809 18.4043ZM18.8965 13.0957C18.4277 14.959 15.5684 14.0098 14.6426 13.7754L15.4629 10.4941C16.3887 10.7285 19.377 11.1621 18.8965 13.0957Z" fill="white"/>
</g>
<defs>
<linearGradient id="paint0_linear_4057_963" x1="1499.19" y1="-0.719999" x2="1499.19" y2="2999.7" gradientUnits="userSpaceOnUse">
<stop stop-color="#F9AA4B"/>
<stop offset="1" stop-color="#F7931A"/>
</linearGradient>
<clipPath id="clip0_4057_963">
<rect width="30" height="30" fill="white"/>
</clipPath>
</defs>
</svg>
