<svg width="30" height="30" viewBox="0 0 30 30" fill="none" xmlns="http://www.w3.org/2000/svg">
<g clip-path="url(#clip0_4080_272)">
<path d="M15 30C23.2843 30 30 23.2843 30 15C30 6.71573 23.2843 0 15 0C6.71573 0 0 6.71573 0 15C0 23.2843 6.71573 30 15 30Z" fill="#008CE7"/>
<path d="M17.8944 7.50372H11.0731L10.5088 10.6603L16.6606 10.6697C19.6897 10.6697 20.5888 11.7693 20.5597 13.5947C20.5466 14.5303 20.1388 16.1128 19.9663 16.6228C19.5003 17.9915 18.5403 19.5497 14.9422 19.545L8.96281 19.5412L8.39844 22.7015H15.2019C17.6009 22.7015 18.6228 22.4212 19.7019 21.9234C22.0963 20.819 23.5222 18.4537 24.095 15.3665C24.9444 10.7728 23.885 7.50372 17.8934 7.50372H17.8944Z" fill="white"/>
<path d="M14.8192 14.8106C15.0414 13.8872 15.1117 13.5168 15.1117 13.5168H8.13109C6.34609 13.5168 6.09109 14.6793 5.92141 15.3825C5.69922 16.3022 5.62891 16.6772 5.62891 16.6772H12.6105C14.3945 16.6772 14.6495 15.5147 14.8192 14.8106Z" fill="white"/>
</g>
<defs>
<clipPath id="clip0_4080_272">
<rect width="30" height="30" fill="white"/>
</clipPath>
</defs>
</svg>
