<svg width="30" height="30" viewBox="0 0 30 30" fill="none" xmlns="http://www.w3.org/2000/svg">
<path d="M15.36 9.885H13.2162V14.11H16.5875V15.8787H13.2162V20.1038H15.465C16.0425 20.1038 20.2075 20.1687 20.2012 15.1875C20.195 10.2062 16.1612 9.885 15.36 9.885ZM15 0C6.71625 0 0 6.71625 0 15C0 23.2838 6.71625 30 15 30C23.2838 30 30 23.2838 30 15C30 6.71625 23.2838 0 15 0ZM15.59 23.1013H10.1575V15.8787H8.2425V14.11H10.1575V6.88875H14.82C15.9225 6.88875 23.2288 6.66 23.2288 15.1312C23.2275 23.7412 15.59 23.1013 15.59 23.1013Z" fill="#B99E33"/>
</svg>
