<svg width="30" height="30" viewBox="0 0 30 30" fill="none" xmlns="http://www.w3.org/2000/svg">
<path d="M15 0C12.0333 0 9.13319 0.879735 6.66645 2.52796C4.19972 4.17618 2.27713 6.51886 1.14181 9.25975C0.00649929 12.0006 -0.290551 15.0166 0.288228 17.9264C0.867006 20.8361 2.29562 23.5088 4.3934 25.6066C6.49119 27.7044 9.16394 29.133 12.0737 29.7118C14.9834 30.2906 17.9994 29.9935 20.7403 28.8582C23.4811 27.7229 25.8238 25.8003 27.472 23.3336C29.1203 20.8668 30 17.9667 30 15C30 11.0218 28.4197 7.20644 25.6066 4.3934C22.7936 1.58035 18.9783 0 15 0ZM14.6725 4.5975H17.9025C17.9686 4.59758 18.0337 4.61294 18.0929 4.64236C18.1521 4.67178 18.2036 4.71448 18.2435 4.76712C18.2835 4.81976 18.3107 4.88091 18.3231 4.94581C18.3355 5.01071 18.3327 5.0776 18.315 5.14125L15.7775 13.7887L18.1588 13.0613L17.6488 14.7925L15.2438 15.4925L13.6838 20.76H22.0288C22.0949 20.7604 22.1601 20.776 22.2191 20.8057C22.2782 20.8355 22.3296 20.8785 22.3693 20.9314C22.409 20.9843 22.436 21.0456 22.448 21.1107C22.4601 21.1757 22.4569 21.2426 22.4388 21.3062L21.7113 23.8062C21.6762 23.9251 21.6038 24.0294 21.5047 24.1038C21.4056 24.1781 21.2851 24.2184 21.1613 24.2188H8.41626L10.57 16.9412L8.18751 17.6663L8.71251 15.965L11.1 15.24L14.1275 5.015C14.1607 4.89544 14.232 4.78997 14.3306 4.71462C14.4292 4.63927 14.5497 4.59815 14.6738 4.5975" fill="#B7B7B7"/>
</svg>
