<svg width="28" height="18" viewBox="0 0 28 18" fill="none" xmlns="http://www.w3.org/2000/svg">
<path d="M10.0312 1.87088H17.467V15.6236H10.0312V1.87088Z" fill="#FF5F00"/>
<path d="M10.5046 8.74732C10.5046 5.95308 11.7792 3.47462 13.7384 1.87091C12.2986 0.70462 10.481 0 8.49815 0C3.80046 0 0 3.91194 0 8.74732C0 13.5826 3.80046 17.4946 8.49804 17.4946C10.4809 17.4946 12.2985 16.79 13.7384 15.6236C11.7792 14.0443 10.5046 11.5416 10.5046 8.74732Z" fill="#EB001B"/>
<path d="M27.5002 8.74732C27.5002 13.5826 23.6997 17.4946 19.0021 17.4946C17.0193 17.4946 15.2017 16.79 13.7617 15.6236C15.7446 14.02 16.9957 11.5416 16.9957 8.74732C16.9957 5.95308 15.7209 3.47462 13.7617 1.87091C15.2016 0.70462 17.0193 0 19.0021 0C23.6997 0 27.5002 3.93629 27.5002 8.74732Z" fill="#F79E1B"/>
</svg>
