<svg width="30" height="26" viewBox="0 0 30 26" fill="none" xmlns="http://www.w3.org/2000/svg">
<g clip-path="url(#clip0_4057_942)">
<path d="M21.6445 12.8422V17.4994H24.2319V14.7396H27.1642C28.3974 14.731 29.4453 13.9418 29.842 12.8422H21.6445Z" fill="#37A72E"/>
<path d="M21.2988 9.00433C21.4498 10.906 23.2523 12.411 25.4515 12.411C25.4601 12.411 29.9491 12.411 29.9491 12.411C29.9836 12.2385 30.0009 12.0574 30.0009 11.872C30.0009 10.2937 28.7288 9.01727 27.1548 9.00433H21.2988Z" fill="url(#paint0_linear_4057_942)"/>
<path d="M17.4692 12.3635C17.4994 12.3118 17.5469 12.2816 17.6072 12.2816C17.6935 12.2816 17.7582 12.3506 17.7625 12.4325V17.4563H20.3498V9.00433H17.7625C17.4347 9.01727 17.0639 9.25444 16.9259 9.55198L14.869 13.9677C14.8647 13.9849 14.856 14.0022 14.8474 14.0194C14.8172 14.0626 14.7655 14.0927 14.7051 14.0927C14.6103 14.0927 14.5326 14.0151 14.5326 13.9202V9.00433H11.9453V17.4563H14.5326C14.856 17.439 15.2183 17.2018 15.3563 16.9086L17.4692 12.3765C17.4649 12.3722 17.4692 12.3679 17.4692 12.3635Z" fill="#37A72E"/>
<path d="M7.80941 12.5101L6.29582 17.4562H4.43295L2.92368 12.5058C2.91074 12.4282 2.84175 12.3678 2.7555 12.3678C2.66063 12.3678 2.58733 12.4455 2.58733 12.536V17.4519H0V9H2.22079H2.88056C3.3549 9 3.85511 9.37085 3.99311 9.82363L5.25227 13.9418C5.31695 14.1488 5.41613 14.1445 5.48082 13.9418L6.73998 9.82363C6.87797 9.36654 7.37819 9 7.85253 9H8.5123H10.7331V17.4519H8.14576V12.536C8.14576 12.536 8.14576 12.536 8.14576 12.5317C8.14576 12.4368 8.06814 12.3635 7.97759 12.3635C7.89134 12.3678 7.82235 12.4282 7.80941 12.5101Z" fill="#37A72E"/>
</g>
<defs>
<linearGradient id="paint0_linear_4057_942" x1="21.2999" y1="10.7077" x2="30.0003" y2="10.7077" gradientUnits="userSpaceOnUse">
<stop stop-color="#00A0E5"/>
<stop offset="1" stop-color="#0077C3"/>
</linearGradient>
<clipPath id="clip0_4057_942">
<rect width="30" height="26" fill="white"/>
</clipPath>
</defs>
</svg>
