<svg width="30" height="30" viewBox="0 0 30 30" fill="none" xmlns="http://www.w3.org/2000/svg">
<path fill-rule="evenodd" clip-rule="evenodd" d="M14.9981 0C23.2814 0 29.9964 6.71475 29.9964 14.9981C29.9964 23.2814 23.2814 29.9962 14.9981 29.9962C6.715 29.9962 0 23.2814 0 14.9981C0 6.71475 6.715 0 14.9981 0Z" fill="#F01010"/>
<path fill-rule="evenodd" clip-rule="evenodd" d="M14.3608 10.1358H13.0902C12.8822 10.1121 12.6281 10.1121 12.3743 10.0895C12.3053 10.1121 12.2814 10.1824 12.2582 10.2745C12.2353 10.3672 12.2582 10.4364 12.3053 10.5055L12.5823 10.5289C12.9281 10.5974 13.1821 10.6669 13.3448 10.7369C13.5059 10.8288 13.621 10.9907 13.6679 11.1987C13.7139 11.4067 13.7369 11.6834 13.7139 12.0304C13.6903 12.5154 13.6679 13.0925 13.6447 13.7626C13.621 14.4334 13.5752 15.1261 13.5286 15.8428C13.483 16.9505 13.3835 19.6495 13.0824 20.4486C13.0127 20.6334 12.8976 20.7492 12.7588 20.8195C12.5967 20.8877 12.4111 20.9572 12.1802 20.9811L11.8096 21.0272C11.7406 21.0728 11.7172 21.143 11.7406 21.2586C11.7406 21.3281 11.7635 21.3969 11.833 21.4666C12.1334 21.4437 12.4111 21.4203 12.712 21.3969H14.5403C14.8868 21.4203 15.1879 21.4437 15.4654 21.4666C15.5352 21.4203 15.5812 21.351 15.5812 21.2586C15.5812 21.1655 15.5583 21.0965 15.4883 21.0272L14.841 20.9811C14.6322 20.9572 14.4703 20.9114 14.355 20.8195C14.297 20.7724 14.2504 20.708 14.2158 20.6295C14.0792 20.3011 14.0763 19.7454 14.0834 19.4003C14.0982 18.6842 14.107 17.9683 14.1297 17.2519C14.1528 16.5358 14.176 15.9113 14.1987 15.3802C14.2211 14.8952 14.2687 14.3863 14.2911 13.8782C14.3143 13.3705 14.3369 12.8616 14.3608 12.3535H14.4067C14.5918 12.7461 14.7768 13.1389 14.9385 13.5778C15.1236 13.994 15.3081 14.41 15.4925 14.8031L17.0406 18.1058C17.1801 18.384 17.3412 18.7305 17.5256 19.1463C17.7341 19.5852 17.9413 20.0007 18.1266 20.4164C18.2244 20.6366 18.309 20.8429 18.3807 21.037C18.3992 21.037 18.5287 21.4627 18.5431 21.5122C18.6321 21.6024 18.7779 21.6002 18.8672 21.5122C19.0108 21.1679 19.1607 20.8195 19.3278 20.4864C19.7655 19.5042 20.2219 18.5662 20.7374 17.6216L22.2392 14.6412C22.355 14.3863 22.4701 14.1091 22.6318 13.8092C22.7937 13.4859 22.9551 13.1855 23.0941 12.9314C23.2094 12.6539 23.3016 12.4693 23.3474 12.3998H23.3708L23.4176 19.5396C23.4401 19.9087 23.4176 20.1848 23.3945 20.393C23.3759 20.5583 23.3294 20.7153 23.1706 20.7961C23.0775 20.9114 22.8927 20.9572 22.592 20.9811L22.0829 21.0272C22.0365 21.0728 22.0136 21.143 22.0365 21.2586C22.0365 21.3281 22.06 21.3969 22.1297 21.4666C22.4762 21.4437 22.8458 21.4203 23.1931 21.3969H25.1835C25.53 21.4203 25.877 21.4437 26.2249 21.4666C26.2944 21.4203 26.3171 21.351 26.3171 21.2586C26.34 21.1655 26.3171 21.0965 26.271 21.0272L25.7155 20.9811C25.461 20.9572 25.2759 20.8877 25.1596 20.7722C25.0452 20.6568 24.9523 20.5178 24.9292 20.3328C24.9055 20.125 24.8824 19.8697 24.8824 19.5925C24.8351 18.733 24.8029 17.8595 24.7804 16.9981C24.757 16.0727 24.7107 15.1956 24.688 14.3646V12.1689C24.688 11.7761 24.7107 11.4759 24.757 11.2445C24.8041 11.037 24.9194 10.8524 25.0806 10.7369C25.2427 10.6444 25.5195 10.5745 25.8892 10.5289L26.2361 10.5055C26.2827 10.4591 26.3054 10.3899 26.2827 10.2745C26.2827 10.2048 26.2593 10.1358 26.2132 10.0895C25.9357 10.1121 25.6582 10.1121 25.4044 10.1358H24.1569C23.9485 10.1121 23.7171 10.1121 23.4176 10.0895C23.3945 10.4816 23.2557 10.9214 23.0477 11.4298C22.7937 11.9602 22.4937 12.6083 22.1241 13.3705L20.5062 16.6277C20.0868 17.5145 19.7047 18.3584 19.1907 19.1992H19.1447C18.7357 18.4277 18.3588 17.6272 17.9879 16.8362L16.0245 12.908C15.7707 12.3535 15.5393 11.8227 15.3545 11.3374C15.1926 10.8524 15.1236 10.4364 15.1465 10.0895C14.8695 10.1121 14.6149 10.1121 14.3608 10.1358ZM4.88074 18.9183C4.88074 19.5067 4.85758 19.9546 4.81052 20.2613C4.76395 20.8553 4.37186 21.0499 3.81908 21.0879L3.46503 21.135C3.35116 21.2493 3.35994 21.4971 3.48966 21.5827C4.21971 21.5373 4.87977 21.5117 5.61225 21.5117C6.39326 21.5117 7.12135 21.5461 7.89992 21.5827C7.94698 21.5356 7.97136 21.4649 7.99477 21.3708C7.99477 21.253 7.97136 21.1816 7.92382 21.135L7.45199 21.0879C7.07454 21.0635 6.81534 20.9928 6.67391 20.8748C6.66538 20.8687 6.65685 20.8624 6.64855 20.8558C6.50591 20.7373 6.40374 20.5564 6.36083 20.276C6.31401 19.9697 6.29036 19.5225 6.31401 18.9349V17.2848C5.79562 17.3087 5.32477 17.2848 4.9005 17.2144L4.88074 18.9183ZM3.36921 10.3138C3.34604 10.4077 3.39335 10.4781 3.46406 10.5493L4.07657 10.6191C4.33528 10.6435 4.52401 10.7137 4.64154 10.8317C4.75907 10.9256 4.83027 11.0909 4.85344 11.3496C4.87733 11.6086 4.9005 11.9863 4.9005 12.48V15.9659C5.37159 15.9896 5.84243 15.9896 6.31401 15.9659V11.1611C6.29036 10.9729 6.31401 10.8317 6.36083 10.7137C6.38424 10.6435 6.4786 10.5718 6.59613 10.5493C6.73755 10.5257 6.97359 10.5257 7.2796 10.5257C8.17424 10.5493 8.85746 10.7844 9.35196 11.2791C9.82305 11.7732 10.0584 12.4566 10.0584 13.3052C10.0827 14.0584 9.89401 14.6943 9.49363 15.212C9.14031 15.6604 8.62216 15.9896 7.91528 16.1544C7.23254 16.3195 6.26695 16.3902 4.97121 16.366C3.84054 16.3439 2.616 16.2727 1.27344 16.1315C2.75767 16.4375 3.86419 16.6491 4.57132 16.7196C5.72466 16.8618 6.85533 16.8374 7.91528 16.6733C8.45684 16.6018 8.95158 16.4611 9.39927 16.2963C9.82305 16.1081 10.2473 15.8489 10.6948 15.5421C10.9537 15.3541 11.1893 15.0469 11.4016 14.6472C11.5667 14.2703 11.6606 13.8228 11.6838 13.2808C11.6606 12.6917 11.5192 12.1748 11.2605 11.7266C11.001 11.2791 10.6948 10.9256 10.2941 10.6674C9.89401 10.4313 9.39927 10.2424 8.83406 10.1246C8.29225 10.0307 7.65608 9.9834 6.92628 9.9834C6.2194 9.9834 5.58348 9.9834 5.01851 10.0068C4.45306 10.0307 3.93491 10.0541 3.48698 10.1012C3.41675 10.1487 3.36921 10.2192 3.36921 10.3138Z" fill="white"/>
</svg>
