<svg width="40" height="40" viewBox="0 0 40 40" fill="none" xmlns="http://www.w3.org/2000/svg">
<path d="M19.9974 37.9332C18.1807 37.9332 16.3807 37.3999 14.9641 36.3499L7.79739 30.9999C5.8974 29.5832 4.41406 26.6166 4.41406 24.2666V11.8666C4.41406 9.2999 6.2974 6.56657 8.71406 5.66657L17.0307 2.5499C18.6807 1.93324 21.2807 1.93324 22.9307 2.5499L31.2474 5.66657C33.6641 6.56657 35.5474 9.2999 35.5474 11.8666V24.2499C35.5474 26.6166 34.0641 29.5666 32.1641 30.9832L24.9974 36.3332C23.6141 37.3999 21.8141 37.9332 19.9974 37.9332ZM17.9141 4.8999L9.5974 8.01657C8.18073 8.5499 6.93073 10.3499 6.93073 11.8832V24.2666C6.93073 25.8499 8.0474 28.0666 9.2974 28.9999L16.4641 34.3499C18.3807 35.7832 21.6141 35.7832 23.5474 34.3499L30.7141 28.9999C31.9807 28.0499 33.0807 25.8499 33.0807 24.2666V11.8666C33.0807 10.3499 31.8307 8.5499 30.4141 7.9999L22.0974 4.88324C20.9641 4.48324 19.0307 4.48324 17.9141 4.8999Z" fill="#22D98C"/>
<path d="M17.7651 23.7167C17.4484 23.7167 17.1318 23.6 16.8818 23.35L14.1984 20.6667C13.7151 20.1834 13.7151 19.3834 14.1984 18.9C14.6818 18.4167 15.4818 18.4167 15.9651 18.9L17.7651 20.7L24.0484 14.4167C24.5318 13.9334 25.3318 13.9334 25.8151 14.4167C26.2984 14.9 26.2984 15.7 25.8151 16.1834L18.6484 23.35C18.3984 23.6 18.0818 23.7167 17.7651 23.7167Z" fill="#22D98C"/>
</svg>
