<svg width="40" height="40" viewBox="0 0 40 40" fill="none" xmlns="http://www.w3.org/2000/svg">
<path d="M23.8 38.994L23.6724 34H20.5C15.9137 34 12.0175 32.3969 8.8114 29.1908C5.60527 25.9847 4.00147 22.0877 4 17.5C3.99853 12.9123 5.60233 9.01607 8.8114 5.8114C12.0205 2.60673 15.9167 1.00293 20.5 1C22.7939 1 24.9411 1.42973 26.9416 2.2892C28.9421 3.1472 30.6897 4.32347 32.1842 5.818C33.6787 7.31253 34.855 9.05933 35.713 11.0584C36.571 13.0604 37 15.2076 37 17.5C37 19.7425 36.6707 21.8963 36.0122 23.9614C35.3537 26.0265 34.4429 27.9779 33.2798 29.8156C32.1167 31.6533 30.7234 33.3473 29.0998 34.8976C27.4762 36.4479 25.7096 37.8126 23.8 38.9918M26 34.77C28.6033 32.57 30.7212 29.9945 32.3536 27.0436C33.986 24.0927 34.8015 20.9115 34.8 17.5C34.8 13.5033 33.4155 10.1212 30.6464 7.3536C27.8773 4.586 24.4952 3.20147 20.5 3.2C16.5048 3.19853 13.1227 4.58307 10.3536 7.3536C7.58453 10.1241 6.2 13.5063 6.2 17.5C6.2 21.4937 7.58453 24.8766 10.3536 27.6486C13.1227 30.4206 16.5048 31.8044 20.5 31.8H26V34.77ZM20.5726 28.6562C21.0273 28.6562 21.4108 28.5 21.7232 28.1876C22.0356 27.8752 22.1918 27.4917 22.1918 27.037C22.1918 26.5823 22.0356 26.1988 21.7232 25.8864C21.4108 25.574 21.0273 25.4171 20.5726 25.4156C20.1179 25.4156 19.7344 25.5725 19.422 25.8864C19.1081 26.1988 18.9512 26.5823 18.9512 27.037C18.9512 27.4917 19.1074 27.8752 19.4198 28.1876C19.7337 28.5 20.1179 28.6562 20.5726 28.6562ZM19.6112 22.2212H21.5582C21.6139 21.3192 21.787 20.6057 22.0774 20.0806C22.3678 19.557 23.0571 18.7503 24.1454 17.6606C24.779 17.0299 25.2806 16.3853 25.6502 15.7268C26.0183 15.0697 26.2024 14.3159 26.2024 13.4652C26.2024 11.8768 25.6546 10.6294 24.559 9.723C23.4634 8.8166 22.1383 8.36267 20.5836 8.3612C19.224 8.3612 18.0727 8.733 17.1296 9.4766C16.1836 10.2202 15.4906 11.1068 15.0506 12.1364L16.8612 12.8382C17.1575 12.187 17.5901 11.5937 18.1592 11.0584C18.7297 10.5245 19.5379 10.2576 20.5836 10.2576C21.8273 10.2576 22.7462 10.5957 23.3402 11.2718C23.9342 11.9494 24.2312 12.6886 24.2312 13.4894C24.2312 14.2257 24.0405 14.8483 23.6592 15.3572C23.2793 15.8661 22.7902 16.4198 22.1918 17.0182C21.1343 17.9495 20.4399 18.7855 20.1084 19.5262C19.7769 20.2669 19.6112 21.1652 19.6112 22.2212Z" fill="#B7B7B7"/>
</svg>
