<svg width="36" height="26" viewBox="0 0 36 26" fill="none" xmlns="http://www.w3.org/2000/svg">
<path d="M23.1941 0.599976C16.0502 0.599976 10.3906 6.22442 10.3906 13.119C10.3906 20.0134 16.1429 25.6379 23.1941 25.6379C30.2454 25.6379 35.9977 20.0134 35.9977 13.119C36.0905 6.22442 30.2454 0.599976 23.1941 0.599976ZM23.1941 17.7455C20.5963 17.7455 18.3697 15.659 18.3697 13.119C18.3697 10.5789 20.5035 8.49235 23.1941 8.49235C25.8848 8.49235 28.0187 10.5789 28.0187 13.119C27.9259 15.659 25.8848 17.7455 23.1941 17.7455Z" fill="#8B3FFD"/>
<path d="M10.3913 4.31946V22.5536H5.84507L0 4.31946H10.3913Z" fill="#8B3FFD"/>
</svg>
