<svg width="28" height="9" viewBox="0 0 28 9" fill="none" xmlns="http://www.w3.org/2000/svg">
<path d="M14.9325 3.06844C14.9171 4.28302 16.0149 4.96076 16.8419 5.36375C17.6916 5.77719 17.977 6.04234 17.9736 6.41211C17.9673 6.97795 17.2958 7.2277 16.6676 7.23741C15.5714 7.25439 14.9341 6.94146 14.4274 6.70479L14.0325 8.5525C14.5409 8.78674 15.4822 8.99104 16.4583 9C18.7496 9 20.2486 7.86895 20.2568 6.11532C20.2657 3.88972 17.1783 3.76653 17.1994 2.77175C17.2067 2.47011 17.4945 2.14822 18.1252 2.06638C18.4374 2.02503 19.2992 1.99339 20.2763 2.44332L20.6598 0.655628C20.1343 0.464309 19.459 0.281109 18.6182 0.281109C16.4616 0.281109 14.9447 1.42755 14.9325 3.06844ZM24.3446 0.435093C23.9262 0.435093 23.5737 0.679148 23.4163 1.05367L20.1433 8.86869H22.4329L22.8885 7.6095H25.6864L25.9507 8.86869H27.9688L26.2077 0.435093H24.3446ZM24.6649 2.71332L25.3257 5.88023H23.5161L24.6649 2.71332ZM12.1565 0.435199L10.3517 8.86859H12.5335L14.3374 0.434988L12.1565 0.435199ZM8.92879 0.435199L6.65784 6.17534L5.73921 1.29456C5.63142 0.749706 5.20575 0.435093 4.73304 0.435093H1.02075L0.96875 0.679992C1.73087 0.845366 2.59677 1.1121 3.12137 1.3975C3.44241 1.57184 3.53396 1.72424 3.63943 2.13852L5.37935 8.86869H7.685L11.2199 0.435093L8.92879 0.435199Z" fill="#0E4595"/>
</svg>
