<svg width="28" height="28" viewBox="0 0 28 28" fill="none" xmlns="http://www.w3.org/2000/svg">
<path d="M14 0C10.287 0 6.72601 1.475 4.1005 4.1005C1.475 6.72601 0 10.287 0 14C0.00401459 17.7118 1.4803 21.2704 4.10494 23.8951C6.72958 26.5197 10.2882 27.996 14 28C17.713 28 21.274 26.525 23.8995 23.8995C26.525 21.274 28 17.713 28 14C28 10.287 26.525 6.72601 23.8995 4.1005C21.274 1.475 17.713 0 14 0ZM12.824 5.15433H15.1737V7.504L18.9945 7.50167V9.632L13.0678 17.6692H18.9945V20.496H15.1737V22.8363H12.8263V20.496H9.00667V18.3657L14.9263 10.3297H9.0055V7.504H12.824V5.15433Z" fill="#FCC12B"/>
</svg>
