<svg width="248" height="86" viewBox="0 0 248 86" fill="none" xmlns="http://www.w3.org/2000/svg">
<g clip-path="url(#clip0_4071_673)">
<path d="M80.3007 51.9432L91.9832 39.9354H98.0509L84.4233 53.5685L98.1421 70.0446H91.9832L81.207 56.6841L80.3007 57.5877V70.0473H75.6836V39.9381H80.3007V51.946V51.9432Z" fill="#262626"/>
<path d="M106.516 39.9381V70.0473H101.898V39.9381H106.516Z" fill="#262626"/>
<path d="M162.52 54.3812H174.97V54.6071C174.97 59.7529 173.431 63.9511 170.489 66.794C167.363 69.8187 163.653 70.6313 160.21 70.6313C155.819 70.6313 152.694 69.3669 149.931 66.524C146.988 63.4993 145.449 59.4829 145.449 55.1497C145.449 50.4557 147.35 46.3925 149.843 43.9104C152.423 41.2934 156.543 39.3954 161.207 39.3954C163.923 39.3954 166.731 39.9822 169.085 41.2907C171.574 42.6901 173.113 44.4504 173.976 45.8057L170.309 48.3786C169.403 47.1142 168.046 45.7616 166.595 44.949C164.921 43.9573 163.108 43.6405 161.251 43.6405C157.311 43.6405 154.777 45.2658 153.283 46.7561C151.29 48.7422 150.069 51.946 150.069 55.1966C150.069 58.2213 151.202 61.246 153.194 63.3671C155.278 65.5792 157.858 66.3918 160.757 66.3918C163.382 66.3918 165.556 65.6232 167.504 63.728C169.179 62.1027 169.859 60.3424 170.041 58.6262H162.525V54.3839L162.52 54.3812Z" fill="#262626"/>
<path d="M187.102 39.9381C188.958 39.9381 191.539 40.1199 193.711 41.5634C196.248 43.2328 197.469 46.1225 197.469 48.8772C197.469 50.6375 197.016 53.3454 194.526 55.4665C192.125 57.4968 189.365 57.8136 187.146 57.8136H185.062V70.0473H180.445V39.9381H187.102ZM185.065 53.5713H187.149C191.133 53.5713 193.034 51.6292 193.034 48.8304C193.034 47.161 192.354 44.1804 187.102 44.1804H185.065V53.5685V53.5713Z" fill="#262626"/>
<path d="M233.464 57.045L223.547 39.9381H228.8L235.774 51.9901L242.748 39.9381H248L238.084 57.045V70.0446H233.466V57.045H233.464Z" fill="#262626"/>
<path d="M139.976 70.0446V39.9381H135.356V60.7914L115.387 39.9381H113.441V70.0446H118.061V49.0094L138.202 70.0446H139.976Z" fill="#262626"/>
<path d="M212.887 39.9381H211.265L197.062 70.0473H202.044L205.349 62.7804H218.253L221.422 70.0473H226.404L212.887 39.9381ZM207.253 58.4444L211.917 48.2436L216.399 58.4444H207.253Z" fill="#262626"/>
<path d="M32.944 53.5548V41.5662C36.163 42.0675 37.7794 43.8884 37.7794 46.9957V47.2822H41.7997C41.7085 41.4394 38.4674 38.5249 32.944 38.1613V34.8253H28.9236V38.2274C23.8727 38.9685 19.9242 41.8747 19.9242 47.5219C19.9242 53.1691 23.6351 55.3343 28.9236 56.5051V69.7002C25.2625 69.0997 23.2731 66.8822 23.2731 62.8906C23.2731 62.7473 23.2731 62.5572 23.3201 62.2707H19.25V62.7473C19.25 69.2044 23.1681 72.5789 28.9209 73.1326V77.1628H32.9412V73.1134C39.0808 72.4137 42.6121 68.7802 42.6121 63.2266C42.6121 56.731 38.122 55.0533 32.9412 53.5603L32.944 53.5548ZM28.9236 52.6457C26.1799 51.8771 23.8975 50.475 23.8975 47.1858C23.8975 44.2493 25.7986 42.2438 28.9236 41.6764V52.6457ZM32.944 69.7774V57.4279C35.9336 58.2185 38.5448 59.7612 38.5448 63.3175C38.5448 66.8739 36.279 69.3118 32.944 69.7774Z" fill="url(#paint0_linear_4071_673)"/>
<path d="M54.5837 10.7738C52.6301 10.7738 51.0469 12.3522 51.0469 14.2998C51.0469 16.2474 52.6301 17.8259 54.5837 17.8259C56.5372 17.8259 58.1204 16.2474 58.1204 14.2998C58.1204 12.3522 56.5372 10.7738 54.5837 10.7738Z" fill="url(#paint1_linear_4071_673)"/>
<path d="M40.7084 17.1647C35.1684 15.7653 30.9325 7.05212 30.9325 7.05212C30.9325 7.05212 26.6967 15.7626 21.1567 17.1647C15.6166 18.5642 12.5358 17.7487 9.92188 16.6992C9.92188 16.6992 14.4285 24.5943 14.4285 28.5996H47.4338C47.4338 24.5943 51.9405 16.6992 51.9405 16.6992C49.3266 17.7487 46.2457 18.5669 40.7057 17.1647H40.7084Z" fill="url(#paint2_linear_4071_673)"/>
<path d="M10.5526 15.6496C11.3001 13.8505 10.4432 11.7878 8.63855 11.0426C6.83393 10.2974 4.76503 11.1518 4.01753 12.9509C3.27003 14.7501 4.127 16.8127 5.93162 17.5579C7.73624 18.3032 9.80514 17.4488 10.5526 15.6496Z" fill="url(#paint3_linear_4071_673)"/>
<path d="M33.4362 6.01947C34.8174 4.64246 34.8174 2.40988 33.4362 1.03287C32.055 -0.344141 29.8157 -0.344141 28.4345 1.03287C27.0533 2.40988 27.0533 4.64246 28.4345 6.01947C29.8157 7.39648 32.055 7.39648 33.4362 6.01947Z" fill="url(#paint4_linear_4071_673)"/>
<path d="M25.6159 31.7345H14.4336V34.0678H25.6159V31.7345Z" fill="url(#paint5_linear_4071_673)"/>
<path d="M47.4362 31.7345H36.2539V34.0678H47.4362V31.7345Z" fill="url(#paint6_linear_4071_673)"/>
<path d="M53.0751 52.8909H56.7003V50.2436H53.0751C52.3429 50.2436 51.7461 50.8358 51.7461 51.5686C51.7461 52.3014 52.3402 52.8936 53.0751 52.8936V52.8909Z" fill="url(#paint7_linear_4071_673)"/>
<path d="M53.0751 58.4885H56.7003V55.8412H53.0751C52.3429 55.8412 51.7461 56.4335 51.7461 57.1662C51.7461 57.899 52.3402 58.4913 53.0751 58.4913V58.4885Z" fill="url(#paint8_linear_4071_673)"/>
<path d="M53.0947 47.3126H54.8548C55.5594 47.3126 56.1286 46.7451 56.1286 46.0426V45.9903C56.1286 45.2603 55.5345 44.6653 54.7995 44.6653H53.0947C52.3625 44.6653 51.7656 45.2575 51.7656 45.9903C51.7656 46.723 52.3597 47.3153 53.0947 47.3153V47.3126Z" fill="url(#paint9_linear_4071_673)"/>
<path d="M56.1286 62.8162V62.7638C56.1286 62.0338 55.5345 61.4388 54.7995 61.4388H53.0947C52.3625 61.4388 51.7656 62.0311 51.7656 62.7638C51.7656 63.4966 52.3597 64.0889 53.0947 64.0889H54.8548C55.5594 64.0889 56.1286 63.5214 56.1286 62.8189V62.8162Z" fill="url(#paint10_linear_4071_673)"/>
<path d="M53.0947 69.6644C53.8287 69.6644 54.4237 69.0712 54.4237 68.3394C54.4237 67.6076 53.8287 67.0144 53.0947 67.0144C52.3607 67.0144 51.7656 67.6076 51.7656 68.3394C51.7656 69.0712 52.3607 69.6644 53.0947 69.6644Z" fill="url(#paint11_linear_4071_673)"/>
<path d="M8.76827 44.6652H7.06343C6.33121 44.6652 5.73438 45.2575 5.73438 45.9903V46.0426C5.73438 46.7451 6.30358 47.3125 7.00817 47.3125H8.76827C9.50049 47.3125 10.0973 46.7203 10.0973 45.9875C10.0973 45.2548 9.50325 44.6625 8.76827 44.6625V44.6652Z" fill="url(#paint12_linear_4071_673)"/>
<path d="M8.76827 61.4388H7.06343C6.33121 61.4388 5.73438 62.0311 5.73438 62.7638V62.8162C5.73438 63.5186 6.30358 64.0861 7.00817 64.0861H8.76827C9.50049 64.0861 10.0973 63.4938 10.0973 62.7611C10.0973 62.0283 9.50325 61.4361 8.76827 61.4361V61.4388Z" fill="url(#paint13_linear_4071_673)"/>
<path d="M8.77046 67.0144C8.03824 67.0144 7.44141 67.6067 7.44141 68.3394C7.44141 69.0722 8.03547 69.6644 8.77046 69.6644C9.50545 69.6644 10.0995 69.0722 10.0995 68.3394C10.0995 67.6067 9.50545 67.0144 8.77046 67.0144Z" fill="url(#paint14_linear_4071_673)"/>
<path d="M52.9666 25.6824C52.6185 26.495 52.2151 27.7209 51.9166 29.4646C55.528 31.3544 57.9982 35.1284 57.9982 39.4698V70.849C57.9982 77.0774 52.9169 82.1434 46.6695 82.1434H30.9336V86H46.6695C55.0638 86 61.8666 79.2178 61.8666 70.849V39.4698C61.8666 33.3433 58.2165 28.068 52.9666 25.6824Z" fill="url(#paint15_linear_4071_673)"/>
<path d="M3.86835 70.849V58.4885H8.44406C9.3697 58.4885 10.1185 57.8962 10.1185 57.1635C10.1185 56.4307 9.3697 55.8384 8.44406 55.8384H0V70.8462C0 79.2151 6.80277 86 15.1971 86H30.933V82.1434H15.1971C8.94971 82.1434 3.86835 77.0774 3.86835 70.849Z" fill="url(#paint16_linear_4071_673)"/>
<path d="M3.86835 44.6653H0V47.3126H3.86835V44.6653Z" fill="url(#paint17_linear_4071_673)"/>
<path d="M3.86835 39.4698C3.86835 35.1284 6.33857 31.3544 9.94995 29.4646C9.65154 27.7181 9.24812 26.495 8.89997 25.6824C3.65007 28.068 0 33.3433 0 39.4698V41.737H3.86835V39.4698Z" fill="url(#paint18_linear_4071_673)"/>
<path d="M3.86835 52.8909H8.78945C9.52167 52.8909 10.1185 52.2986 10.1185 51.5658C10.1185 50.8331 9.52443 50.2408 8.78945 50.2408H0V52.9074H3.86835V52.8881V52.8909Z" fill="url(#paint19_linear_4071_673)"/>
<path d="M14.082 26.2636C14.3003 27.1148 14.4329 27.9137 14.4329 28.5969H47.4383C47.4383 27.9137 47.5709 27.1148 47.7892 26.2636H14.082Z" fill="url(#paint20_linear_4071_673)"/>
<path d="M14.082 26.2636C14.3003 27.1148 14.4329 27.9137 14.4329 28.5969H47.4383C47.4383 27.9137 47.5709 27.1148 47.7892 26.2636H14.082Z" fill="url(#paint21_linear_4071_673)"/>
</g>
<defs>
<linearGradient id="paint0_linear_4071_673" x1="30.7685" y1="35.2121" x2="30.7685" y2="78.764" gradientUnits="userSpaceOnUse">
<stop stop-color="#16128B"/>
<stop offset="1" stop-color="#47E1DD"/>
</linearGradient>
<linearGradient id="paint1_linear_4071_673" x1="54.5345" y1="10.8382" x2="54.5345" y2="18.0926" gradientUnits="userSpaceOnUse">
<stop stop-color="#16128B"/>
<stop offset="1" stop-color="#47E1DD"/>
</linearGradient>
<linearGradient id="paint2_linear_4071_673" x1="30.6389" y1="7.24895" x2="30.6389" y2="29.4146" gradientUnits="userSpaceOnUse">
<stop stop-color="#16128B"/>
<stop offset="1" stop-color="#47E1DD"/>
</linearGradient>
<linearGradient id="paint3_linear_4071_673" x1="4.05839" y1="13.0209" x2="10.775" y2="15.8114" gradientUnits="userSpaceOnUse">
<stop stop-color="#16128B"/>
<stop offset="1" stop-color="#47E1DD"/>
</linearGradient>
<linearGradient id="paint4_linear_4071_673" x1="28.4454" y1="1.1131" x2="33.575" y2="6.25832" gradientUnits="userSpaceOnUse">
<stop stop-color="#16128B"/>
<stop offset="1" stop-color="#47E1DD"/>
</linearGradient>
<linearGradient id="paint5_linear_4071_673" x1="19.947" y1="31.7558" x2="19.947" y2="34.156" gradientUnits="userSpaceOnUse">
<stop stop-color="#16128B"/>
<stop offset="1" stop-color="#47E1DD"/>
</linearGradient>
<linearGradient id="paint6_linear_4071_673" x1="41.7673" y1="31.7558" x2="41.7673" y2="34.156" gradientUnits="userSpaceOnUse">
<stop stop-color="#16128B"/>
<stop offset="1" stop-color="#47E1DD"/>
</linearGradient>
<linearGradient id="paint7_linear_4071_673" x1="54.1888" y1="50.2678" x2="54.1888" y2="52.9939" gradientUnits="userSpaceOnUse">
<stop stop-color="#16128B"/>
<stop offset="1" stop-color="#47E1DD"/>
</linearGradient>
<linearGradient id="paint8_linear_4071_673" x1="54.1888" y1="55.8654" x2="54.1888" y2="58.5915" gradientUnits="userSpaceOnUse">
<stop stop-color="#16128B"/>
<stop offset="1" stop-color="#47E1DD"/>
</linearGradient>
<linearGradient id="paint9_linear_4071_673" x1="53.9168" y1="44.6895" x2="53.9168" y2="47.4155" gradientUnits="userSpaceOnUse">
<stop stop-color="#16128B"/>
<stop offset="1" stop-color="#47E1DD"/>
</linearGradient>
<linearGradient id="paint10_linear_4071_673" x1="53.9168" y1="61.463" x2="53.9168" y2="64.1891" gradientUnits="userSpaceOnUse">
<stop stop-color="#16128B"/>
<stop offset="1" stop-color="#47E1DD"/>
</linearGradient>
<linearGradient id="paint11_linear_4071_673" x1="53.0762" y1="67.0386" x2="53.0762" y2="69.7647" gradientUnits="userSpaceOnUse">
<stop stop-color="#16128B"/>
<stop offset="1" stop-color="#47E1DD"/>
</linearGradient>
<linearGradient id="paint12_linear_4071_673" x1="7.8855" y1="44.6867" x2="7.8855" y2="47.4128" gradientUnits="userSpaceOnUse">
<stop stop-color="#16128B"/>
<stop offset="1" stop-color="#47E1DD"/>
</linearGradient>
<linearGradient id="paint13_linear_4071_673" x1="7.8855" y1="61.4603" x2="7.8855" y2="64.1863" gradientUnits="userSpaceOnUse">
<stop stop-color="#16128B"/>
<stop offset="1" stop-color="#47E1DD"/>
</linearGradient>
<linearGradient id="paint14_linear_4071_673" x1="8.75197" y1="67.0386" x2="8.75197" y2="69.7647" gradientUnits="userSpaceOnUse">
<stop stop-color="#16128B"/>
<stop offset="1" stop-color="#47E1DD"/>
</linearGradient>
<linearGradient id="paint15_linear_4071_673" x1="46.1849" y1="26.2333" x2="46.1849" y2="88.2812" gradientUnits="userSpaceOnUse">
<stop stop-color="#16128B"/>
<stop offset="1" stop-color="#47E1DD"/>
</linearGradient>
<linearGradient id="paint16_linear_4071_673" x1="15.2513" y1="56.1139" x2="15.2513" y2="87.1407" gradientUnits="userSpaceOnUse">
<stop stop-color="#16128B"/>
<stop offset="1" stop-color="#47E1DD"/>
</linearGradient>
<linearGradient id="paint17_linear_4071_673" x1="1.90727" y1="44.6894" x2="1.90727" y2="47.4127" gradientUnits="userSpaceOnUse">
<stop stop-color="#16128B"/>
<stop offset="1" stop-color="#47E1DD"/>
</linearGradient>
<linearGradient id="paint18_linear_4071_673" x1="4.90577" y1="25.829" x2="4.90577" y2="42.3441" gradientUnits="userSpaceOnUse">
<stop stop-color="#16128B"/>
<stop offset="1" stop-color="#47E1DD"/>
</linearGradient>
<linearGradient id="paint19_linear_4071_673" x1="4.98887" y1="50.2652" x2="4.98887" y2="53.0082" gradientUnits="userSpaceOnUse">
<stop stop-color="#16128B"/>
<stop offset="1" stop-color="#47E1DD"/>
</linearGradient>
<linearGradient id="paint20_linear_4071_673" x1="30.7012" y1="26.2849" x2="30.7012" y2="28.6851" gradientUnits="userSpaceOnUse">
<stop stop-color="#16128B"/>
<stop offset="1" stop-color="#47E1DD"/>
</linearGradient>
<linearGradient id="paint21_linear_4071_673" x1="30.7012" y1="26.2849" x2="30.7012" y2="28.6851" gradientUnits="userSpaceOnUse">
<stop stop-color="#16128B"/>
<stop offset="1" stop-color="#47E1DD"/>
</linearGradient>
<clipPath id="clip0_4071_673">
<rect width="248" height="86" fill="white"/>
</clipPath>
</defs>
</svg>
